<svg width="952" height="1100" viewBox="0 0 952 1100" fill="none" xmlns="http://www.w3.org/2000/svg">
<path d="M658.946 627.674C753.365 645.487 830.53 633.182 880 595.625C818.478 606.58 741.497 618.181 658.946 627.674C605.264 617.546 546.004 597.682 483.087 567.187C309.507 483.058 100.704 527.914 18 560.858C67.7864 666.982 392.401 658.323 658.946 627.674Z" fill="#6666F1"/>
<path d="M880 595.625C802.403 654.535 656.666 651.317 483.087 567.187C309.507 483.058 100.704 527.914 18 560.858C83.2057 699.85 619.836 641.95 880 595.625Z" stroke="#6666F1" stroke-width="20"/>
<path d="M18 805.855V574L62.5 606.82L140 645.992L240.5 671.4H362.5L494 626.935L659.5 581.411L834 591.469L932 626.935L926 805.855L476 1079L18 805.855Z" fill="#5050F8" stroke="#5050F8" stroke-width="20"/>
<path d="M9 559C87.542 623.109 296.554 716.253 472.248 624.699C647.942 533.144 859.289 581.959 943 617.811" stroke="#5050F8" stroke-width="20"/>
<path d="M476.888 10L941.211 268.242M476.888 10L10 268.242M476.888 10V150.238M941.211 268.242V820.641M941.211 268.242L476.888 150.238M941.211 268.242L802.684 740.261M941.211 820.641L476.888 1090M941.211 820.641L802.684 740.261M476.888 1090L10 820.641M476.888 1090L152.803 740.261M476.888 1090L802.684 740.261M10 820.641V268.242M10 820.641L152.803 740.261M10 268.242L476.888 150.238M10 268.242L152.803 740.261M476.888 150.238L152.803 740.261M476.888 150.238L802.684 740.261M152.803 740.261H802.684" stroke="#666666" stroke-width="20" stroke-linejoin="round"/>
<path d="M399.2 424V482.119L348 496.649L383.84 530.551L358.24 578.984H409.44V675.849H429.92V587.195C443.2 592.643 457.16 598.243 481.16 607.286C481.16 607.551 481.12 607.778 481.12 608.043C481.12 629.649 488.28 647.243 501.4 658.897C514.48 670.589 532.72 675.849 552.8 675.849V656.476C536.4 656.476 523.92 652.351 515.4 644.822C508.12 638.314 503.2 628.892 501.92 615.157C515.4 619.962 527.52 624.011 535.92 626.168C538.84 626.886 541.84 627.265 544.8 627.265C563.44 627.265 581.48 613.189 584.88 595.33L593.76 549.924L563.04 569.297C515.04 569.297 503.64 540.238 503.64 540.238C507.24 532.065 514.68 526.276 523.32 522.038L532.32 530.551V518.33C534.24 517.686 536.16 517.157 538.08 516.627L552.8 530.551V513.297C553.4 513.184 554.08 513.032 554.68 512.957L573.28 530.551V511.178L604 530.551V483.595C604 469.292 593.76 456.124 578.92 453.551C577 453.211 575.12 453.059 573.28 453.059C565.08 453.059 557.76 456.314 552.24 461.308L537.44 424L522.08 462.746H460.64L399.2 424ZM419.68 460.173L449.28 478.865L454.44 482.119H559.68L565.76 475.762C566.96 474.514 569.48 472.432 573.28 472.432C573.92 472.432 574.56 472.47 575.2 472.584C579.88 473.416 583.52 478.222 583.52 483.595V491.805H579.48L579.32 491.73L573.28 491.805H572.96C565.72 491.919 501.92 494.038 484.76 532.746L481.64 539.784L484.44 546.935C490.52 562.449 513.88 588.67 563.04 588.67H565.36L564.72 591.962C563.12 600.438 553.8 607.892 544.8 607.892C543.56 607.892 542.36 607.741 541.24 607.438C509.68 599.416 418.6 561.616 417.68 561.238L413.76 559.611H391.36L402.16 539.216L408.76 526.73L386.72 505.881L405.12 500.697L419.68 496.535V460.173ZM450.4 491.805C450.4 491.805 452.76 511.178 470.88 511.178C489 511.178 501.6 491.805 501.6 491.805H450.4Z" fill="#444444" stroke="#333333" stroke-width="0.00256"/>
</svg>
